<?xml version="1.0" encoding="UTF-8" standalone="no"?>
<!-- Created with Inkscape (http://www.inkscape.org/) -->

<svg
   width="14.404866mm"
   height="14.404866mm"
   viewBox="0 0 14.404866 14.404866"
   version="1.1"
   id="svg5"
   inkscape:version="1.2 (dc2aeda, 2022-05-15)"
   sodipodi:docname="logo.svg"
   xmlns:inkscape="http://www.inkscape.org/namespaces/inkscape"
   xmlns:sodipodi="http://sodipodi.sourceforge.net/DTD/sodipodi-0.dtd"
   xmlns="http://www.w3.org/2000/svg"
   xmlns:svg="http://www.w3.org/2000/svg">
  <sodipodi:namedview
     id="namedview7"
     pagecolor="#ffffff"
     bordercolor="#000000"
     borderopacity="0.25"
     inkscape:showpageshadow="2"
     inkscape:pageopacity="0.0"
     inkscape:pagecheckerboard="0"
     inkscape:deskcolor="#d1d1d1"
     inkscape:document-units="mm"
     showgrid="true"
     inkscape:zoom="4.7572176"
     inkscape:cx="-14.819587"
     inkscape:cy="34.789243"
     inkscape:window-width="1920"
     inkscape:window-height="1027"
     inkscape:window-x="0"
     inkscape:window-y="25"
     inkscape:window-maximized="1"
     inkscape:current-layer="layer1">
    <inkscape:grid
       type="xygrid"
       id="grid132"
       originx="-70.41143"
       originy="-116.07319" />
  </sodipodi:namedview>
  <defs
     id="defs2" />
  <g
     inkscape:label="Layer 1"
     inkscape:groupmode="layer"
     id="layer1"
     transform="translate(-70.41143,-116.07319)">
    <rect
       style="font-variation-settings:normal;opacity:1;vector-effect:none;fill:none;fill-opacity:1;stroke:none;stroke-width:1.21726;stroke-linecap:butt;stroke-linejoin:round;stroke-miterlimit:4;stroke-dasharray:none;stroke-dashoffset:0;stroke-opacity:0.95098;-inkscape-stroke:none;stop-color:#000000;stop-opacity:1"
       id="rect1794"
       width="14.404866"
       height="14.404866"
       x="70.41143"
       y="116.07319" />
    <g
       id="g1227"
       transform="translate(0.08342152)">
      <circle
         style="fill:none;stroke:#000000;stroke-width:1.4;stroke-linejoin:round;stroke-dasharray:none;stroke-opacity:0.95098"
         id="path1195"
         cx="77.530441"
         cy="123.27562"
         r="4.4493794" />
      <rect
         style="fill:none;stroke:#000000;stroke-width:1.21726;stroke-linejoin:round;stroke-dasharray:none;stroke-opacity:0.95098"
         id="rect1197"
         width="1.7400279"
         height="12.474155"
         x="76.660431"
         y="117.03854" />
      <rect
         style="fill:none;stroke:#000000;stroke-width:1.21726;stroke-linejoin:round;stroke-dasharray:none;stroke-opacity:0.95098"
         id="rect1219"
         width="1.7400279"
         height="12.474155"
         x="144.65503"
         y="-11.742601"
         transform="rotate(60)" />
      <rect
         style="fill:none;stroke:#000000;stroke-width:1.21726;stroke-linejoin:round;stroke-dasharray:none;stroke-opacity:0.95098"
         id="rect1221"
         width="1.7400279"
         height="12.474155"
         x="67.124588"
         y="-135.01822"
         transform="rotate(120)" />
    </g>
    <g
       id="g1237"
       style="fill:#87cdde;stroke:none"
       transform="rotate(180,77.572153,123.27562)">
      <circle
         style="fill:#87cdde;stroke:none;stroke-width:1.4;stroke-linejoin:round;stroke-dasharray:none;stroke-opacity:0.95098"
         id="circle1229"
         cx="77.530441"
         cy="123.27562"
         r="4.4493794" />
      <rect
         style="fill:#87cdde;stroke:none;stroke-width:1.21726;stroke-linejoin:round;stroke-dasharray:none;stroke-opacity:0.95098"
         id="rect1231"
         width="1.7400279"
         height="12.474155"
         x="76.660431"
         y="117.03854" />
      <rect
         style="fill:#87cdde;stroke:none;stroke-width:1.21726;stroke-linejoin:round;stroke-dasharray:none;stroke-opacity:0.95098"
         id="rect1233"
         width="1.7400279"
         height="12.474155"
         x="144.65503"
         y="-11.742601"
         transform="rotate(60)" />
      <rect
         style="fill:#87cdde;stroke:none;stroke-width:1.21726;stroke-linejoin:round;stroke-dasharray:none;stroke-opacity:0.95098"
         id="rect1235"
         width="1.7400279"
         height="12.474155"
         x="67.124588"
         y="-135.01822"
         transform="rotate(120)" />
    </g>
    <g
       id="g1686"
       transform="matrix(0.9100586,0,0,0.9100586,7.0566189,11.087584)"
       inkscape:export-filename="logo.png"
       inkscape:export-xdpi="225.70157"
       inkscape:export-ydpi="225.70157">
      <path
         id="path1369"
         style="fill:#000000;stroke:none;stroke-width:0.7075;stroke-linejoin:round;stroke-dasharray:none;stroke-opacity:0.95098"
         d="m 75.261039,121.17658 a 3.0917246,3.0917246 0 0 0 -0.822172,2.0991 3.0917246,3.0917246 0 0 0 3.091801,3.0918 3.0917246,3.0917246 0 0 0 1.159103,-0.22686 3.6757057,3.6164093 0 0 1 -0.01912,5.2e-4 3.6757057,3.6164093 0 0 1 -3.675744,-3.61632 3.6757057,3.6164093 0 0 1 0.266133,-1.34824 z" />
      <path
         style="font-variation-settings:normal;vector-effect:none;fill:#000000;fill-opacity:1;stroke:none;stroke-width:1.21726;stroke-linecap:butt;stroke-linejoin:round;stroke-miterlimit:4;stroke-dasharray:none;stroke-dashoffset:0;stroke-opacity:0.95098;-inkscape-stroke:none;stop-color:#000000"
         d="m 75.222321,121.21778 c 0,0 -1.077527,1.18799 -1.390431,2.16908 0.361512,-0.3059 1.015015,-0.50056 1.626805,-0.15295 -0.222469,-0.57008 -0.236374,-2.01613 -0.236374,-2.01613 z"
         id="path1481"
         sodipodi:nodetypes="cccc" />
      <path
         id="path1640"
         style="fill:#000000;stroke:none;stroke-width:0.7075;stroke-linejoin:round;stroke-dasharray:none;stroke-opacity:0.95098"
         d="m 79.799843,125.37466 a 3.0917246,3.0917246 0 0 0 0.822172,-2.0991 3.0917246,3.0917246 0 0 0 -3.091801,-3.0918 3.0917246,3.0917246 0 0 0 -1.159103,0.22686 3.6757057,3.6164093 0 0 1 0.01912,-5.2e-4 3.6757057,3.6164093 0 0 1 3.675744,3.61632 3.6757057,3.6164093 0 0 1 -0.266133,1.34824 z" />
      <path
         style="font-variation-settings:normal;vector-effect:none;fill:#000000;fill-opacity:1;stroke:none;stroke-width:1.21726;stroke-linecap:butt;stroke-linejoin:round;stroke-miterlimit:4;stroke-dasharray:none;stroke-dashoffset:0;stroke-opacity:0.95098;-inkscape-stroke:none;stop-color:#000000"
         d="m 79.838561,125.33346 c 0,0 1.077527,-1.18799 1.390431,-2.16908 -0.361512,0.3059 -1.015015,0.50056 -1.626805,0.15295 0.222469,0.57008 0.236374,2.01613 0.236374,2.01613 z"
         id="path1642"
         sodipodi:nodetypes="cccc" />
    </g>
  </g>
</svg>
